<svg width="1769" height="452" viewBox="0 0 1769 452" fill="none" xmlns="http://www.w3.org/2000/svg">
<path d="M678.019 301.199C667.882 305.652 655.197 307.879 639.962 307.879C595.607 307.879 573.429 286.053 573.429 242.4C573.429 201.092 595.988 180.438 641.105 180.438C654.875 180.438 667.179 182.488 678.019 186.59V207.684C667.179 202.996 655.46 200.652 642.863 200.652C612.687 200.652 597.599 214.568 597.599 242.4C597.599 272.576 611.837 287.664 640.314 287.664C644.533 287.664 649.337 286.961 654.728 285.555V248.992H678.019V301.199ZM699.992 306.824V181.316H757.121C782.785 181.316 795.617 192.537 795.617 214.979C795.617 230.154 785.626 242.723 765.646 252.684L805.46 307H776.105L737.873 252.244V241.609C760.138 237.801 771.271 229.158 771.271 215.682C771.271 206.424 766.056 201.795 755.626 201.795H723.722V306.824H699.992ZM836.31 243.807C836.31 273.045 849.289 287.664 875.246 287.664C900.558 287.664 913.214 273.045 913.214 243.807C913.214 215.037 900.558 200.652 875.246 200.652C849.289 200.652 836.31 215.037 836.31 243.807ZM812.14 244.334C812.14 201.736 833.175 180.438 875.246 180.438C916.671 180.438 937.384 201.736 937.384 244.334C937.384 286.697 916.671 307.879 875.246 307.879C835.05 307.879 814.015 286.697 812.14 244.334ZM949.337 181.316H972.98L986.427 271.58L1019.12 181.316H1041.53L1072.12 268.064L1086.36 181.316H1109.3L1085.66 307H1063.51L1028.97 208.387L991.876 307H969.992L949.337 181.316ZM1207.74 181.316V201.531H1171.7V307H1148.41V201.531H1112.37V181.316H1207.74ZM1221.01 307V181.316H1244.3V233.172H1306.26V181.316H1329.55V307H1306.26V253.387H1244.3V307H1221.01ZM1356.01 307V181.316H1380.18L1422.8 276.678L1464.55 181.316H1487.84V307H1466.31V219.461L1432.21 307H1412.35L1377.54 219.461V307H1356.01ZM1527.13 307H1503.22L1556.57 181.316H1581.62L1636.11 307H1611.07L1596.74 272.723H1554.99L1562.99 252.508H1588.3L1568.53 205.311L1527.13 307ZM1674.79 181.316V307H1651.5V181.316H1674.79ZM1763.2 181.316L1709.59 239.939L1768.83 307H1736.57L1687.97 248.289V233.172L1734.73 181.316H1763.2Z" fill="#00294F"/>
<path fill-rule="evenodd" clip-rule="evenodd" d="M401.152 397.291C439.452 355.095 462.868 298.592 462.868 236.5C462.868 105.885 359.251 0 231.434 0C103.616 0 0 105.885 0 236.5C0 300.65 24.9937 358.834 65.5729 401.439V334.253L231.82 129.287L401.152 334.253V397.291Z" fill="url(#paint0_linear_35_5)"/>
<path fill-rule="evenodd" clip-rule="evenodd" d="M231.802 186.047L102.603 339.515V428.853L136.467 393.461V358.143L231.336 245.478L325.665 358.143V393.378H325.936L360.266 428.853V339.515L231.802 186.047Z" fill="url(#paint1_linear_35_5)"/>
<path fill-rule="evenodd" clip-rule="evenodd" d="M231.289 292.472L146.575 393.099V451.677L168.779 428.471V405.313L230.984 331.44L292.834 405.313V428.417H293.012L315.521 451.677V393.099L231.289 292.472Z" fill="url(#paint2_linear_35_5)"/>
<defs>
<linearGradient id="paint0_linear_35_5" x1="451.682" y1="172.433" x2="71.3925" y2="376.227" gradientUnits="userSpaceOnUse">
<stop offset="0.138736" stop-color="#23C7F3"/>
<stop offset="0.279232" stop-color="#02A7F7"/>
<stop offset="1" stop-color="#22317A"/>
</linearGradient>
<linearGradient id="paint1_linear_35_5" x1="354.039" y1="290.341" x2="134.865" y2="398.44" gradientUnits="userSpaceOnUse">
<stop offset="0.138736" stop-color="#23C7F3"/>
<stop offset="0.279232" stop-color="#02A7F7"/>
<stop offset="1" stop-color="#22317A"/>
</linearGradient>
<linearGradient id="paint2_linear_35_5" x1="311.439" y1="360.856" x2="167.729" y2="431.735" gradientUnits="userSpaceOnUse">
<stop offset="0.138736" stop-color="#23C7F3"/>
<stop offset="0.279232" stop-color="#02A7F7"/>
<stop offset="1" stop-color="#22317A"/>
</linearGradient>
</defs>
</svg>
